<mxfile host="app.diagrams.net" modified="2023-10-04T21:37:40.298Z" agent="Mozilla/5.0 (Windows NT 10.0; Win64; x64) AppleWebKit/537.36 (KHTML, like Gecko) Chrome/117.0.0.0 Safari/537.36" etag="64c_7yppd8h12lyeMtn1" version="21.6.3" type="github" pages="4">
  <diagram name="Completa" id="qYTaqpHgXXdfk7ogM8Xo">
    <mxGraphModel dx="-1009" dy="4978" grid="1" gridSize="10" guides="1" tooltips="1" connect="1" arrows="1" fold="1" page="1" pageScale="1" pageWidth="827" pageHeight="1169" math="0" shadow="0">
      <root>
        <mxCell id="0" />
        <mxCell id="1" parent="0" />
        <mxCell id="HLCbXC__rA61MA5NDTQK-52" value="Private subnet" style="points=[[0,0],[0.25,0],[0.5,0],[0.75,0],[1,0],[1,0.25],[1,0.5],[1,0.75],[1,1],[0.75,1],[0.5,1],[0.25,1],[0,1],[0,0.75],[0,0.5],[0,0.25]];outlineConnect=0;gradientColor=none;html=1;whiteSpace=wrap;fontSize=12;fontStyle=0;container=1;pointerEvents=0;collapsible=0;recursiveResize=0;shape=mxgraph.aws4.group;grIcon=mxgraph.aws4.group_security_group;grStroke=0;strokeColor=#147EBA;fillColor=#E6F2F8;verticalAlign=top;align=left;spacingLeft=30;fontColor=#147EBA;dashed=0;" parent="1" vertex="1">
          <mxGeometry x="7440" y="-640" width="360" height="350" as="geometry" />
        </mxCell>
        <mxCell id="HLCbXC__rA61MA5NDTQK-70" value="" style="rounded=1;arcSize=10;dashed=1;strokeColor=#ff0000;fillColor=none;gradientColor=none;dashPattern=8 4;strokeWidth=2;" parent="HLCbXC__rA61MA5NDTQK-52" vertex="1">
          <mxGeometry x="27.5" y="80" width="292" height="250.5" as="geometry" />
        </mxCell>
        <mxCell id="HLCbXC__rA61MA5NDTQK-53" value="" style="sketch=0;points=[[0,0,0],[0.25,0,0],[0.5,0,0],[0.75,0,0],[1,0,0],[0,1,0],[0.25,1,0],[0.5,1,0],[0.75,1,0],[1,1,0],[0,0.25,0],[0,0.5,0],[0,0.75,0],[1,0.25,0],[1,0.5,0],[1,0.75,0]];outlineConnect=0;fontColor=#232F3E;gradientColor=#F78E04;gradientDirection=north;fillColor=#D05C17;strokeColor=#ffffff;dashed=0;verticalLabelPosition=bottom;verticalAlign=top;align=center;html=1;fontSize=12;fontStyle=0;aspect=fixed;shape=mxgraph.aws4.resourceIcon;resIcon=mxgraph.aws4.ec2;" parent="HLCbXC__rA61MA5NDTQK-52" vertex="1">
          <mxGeometry x="47.49791208791248" y="229.99830508474577" width="78" height="78" as="geometry" />
        </mxCell>
        <mxCell id="HLCbXC__rA61MA5NDTQK-56" value="APP SERVER" style="text;html=1;align=center;verticalAlign=middle;resizable=0;points=[];autosize=1;strokeColor=none;fillColor=none;" parent="HLCbXC__rA61MA5NDTQK-52" vertex="1">
          <mxGeometry x="112.5" y="90" width="100" height="30" as="geometry" />
        </mxCell>
        <mxCell id="HLCbXC__rA61MA5NDTQK-65" value="" style="sketch=0;points=[[0,0,0],[0.25,0,0],[0.5,0,0],[0.75,0,0],[1,0,0],[0,1,0],[0.25,1,0],[0.5,1,0],[0.75,1,0],[1,1,0],[0,0.25,0],[0,0.5,0],[0,0.75,0],[1,0.25,0],[1,0.5,0],[1,0.75,0]];outlineConnect=0;fontColor=#232F3E;gradientColor=#F78E04;gradientDirection=north;fillColor=#D05C17;strokeColor=#ffffff;dashed=0;verticalLabelPosition=bottom;verticalAlign=top;align=center;html=1;fontSize=12;fontStyle=0;aspect=fixed;shape=mxgraph.aws4.resourceIcon;resIcon=mxgraph.aws4.ec2;" parent="HLCbXC__rA61MA5NDTQK-52" vertex="1">
          <mxGeometry x="134.49791208791248" y="229.99830508474577" width="78" height="78" as="geometry" />
        </mxCell>
        <mxCell id="HLCbXC__rA61MA5NDTQK-66" value="" style="sketch=0;points=[[0,0,0],[0.25,0,0],[0.5,0,0],[0.75,0,0],[1,0,0],[0,1,0],[0.25,1,0],[0.5,1,0],[0.75,1,0],[1,1,0],[0,0.25,0],[0,0.5,0],[0,0.75,0],[1,0.25,0],[1,0.5,0],[1,0.75,0]];outlineConnect=0;fontColor=#232F3E;gradientColor=#F78E04;gradientDirection=north;fillColor=#D05C17;strokeColor=#ffffff;dashed=0;verticalLabelPosition=bottom;verticalAlign=top;align=center;html=1;fontSize=12;fontStyle=0;aspect=fixed;shape=mxgraph.aws4.resourceIcon;resIcon=mxgraph.aws4.ec2;" parent="HLCbXC__rA61MA5NDTQK-52" vertex="1">
          <mxGeometry x="224.49791208791248" y="229.99830508474577" width="78" height="78" as="geometry" />
        </mxCell>
        <mxCell id="HLCbXC__rA61MA5NDTQK-67" value="" style="sketch=0;points=[[0,0,0],[0.25,0,0],[0.5,0,0],[0.75,0,0],[1,0,0],[0,1,0],[0.25,1,0],[0.5,1,0],[0.75,1,0],[1,1,0],[0,0.25,0],[0,0.5,0],[0,0.75,0],[1,0.25,0],[1,0.5,0],[1,0.75,0]];outlineConnect=0;fontColor=#232F3E;gradientColor=#F78E04;gradientDirection=north;fillColor=#D05C17;strokeColor=#ffffff;dashed=0;verticalLabelPosition=bottom;verticalAlign=top;align=center;html=1;fontSize=12;fontStyle=0;aspect=fixed;shape=mxgraph.aws4.resourceIcon;resIcon=mxgraph.aws4.ec2;" parent="HLCbXC__rA61MA5NDTQK-52" vertex="1">
          <mxGeometry x="47.49791208791248" y="139.99830508474577" width="78" height="78" as="geometry" />
        </mxCell>
        <mxCell id="HLCbXC__rA61MA5NDTQK-68" value="" style="sketch=0;points=[[0,0,0],[0.25,0,0],[0.5,0,0],[0.75,0,0],[1,0,0],[0,1,0],[0.25,1,0],[0.5,1,0],[0.75,1,0],[1,1,0],[0,0.25,0],[0,0.5,0],[0,0.75,0],[1,0.25,0],[1,0.5,0],[1,0.75,0]];outlineConnect=0;fontColor=#232F3E;gradientColor=#F78E04;gradientDirection=north;fillColor=#D05C17;strokeColor=#ffffff;dashed=0;verticalLabelPosition=bottom;verticalAlign=top;align=center;html=1;fontSize=12;fontStyle=0;aspect=fixed;shape=mxgraph.aws4.resourceIcon;resIcon=mxgraph.aws4.ec2;" parent="HLCbXC__rA61MA5NDTQK-52" vertex="1">
          <mxGeometry x="134.49791208791248" y="139.99830508474577" width="78" height="78" as="geometry" />
        </mxCell>
        <mxCell id="HLCbXC__rA61MA5NDTQK-69" value="" style="sketch=0;points=[[0,0,0],[0.25,0,0],[0.5,0,0],[0.75,0,0],[1,0,0],[0,1,0],[0.25,1,0],[0.5,1,0],[0.75,1,0],[1,1,0],[0,0.25,0],[0,0.5,0],[0,0.75,0],[1,0.25,0],[1,0.5,0],[1,0.75,0]];outlineConnect=0;fontColor=#232F3E;gradientColor=#F78E04;gradientDirection=north;fillColor=#D05C17;strokeColor=#ffffff;dashed=0;verticalLabelPosition=bottom;verticalAlign=top;align=center;html=1;fontSize=12;fontStyle=0;aspect=fixed;shape=mxgraph.aws4.resourceIcon;resIcon=mxgraph.aws4.ec2;" parent="HLCbXC__rA61MA5NDTQK-52" vertex="1">
          <mxGeometry x="224.49791208791248" y="139.99830508474577" width="78" height="78" as="geometry" />
        </mxCell>
        <mxCell id="CTFJwCtAbw5jruC2qFMy-20" value="&lt;b style=&quot;font-size: 22px;&quot;&gt;&lt;font face=&quot;Calibri&quot;&gt;Clinic + UCI&lt;/font&gt;&lt;/b&gt;" style="text;html=1;strokeColor=none;fillColor=none;align=center;verticalAlign=middle;whiteSpace=wrap;rounded=0;" vertex="1" parent="HLCbXC__rA61MA5NDTQK-52">
          <mxGeometry x="20" y="30" width="307" height="30" as="geometry" />
        </mxCell>
        <mxCell id="CTFJwCtAbw5jruC2qFMy-30" value="Private subnet" style="points=[[0,0],[0.25,0],[0.5,0],[0.75,0],[1,0],[1,0.25],[1,0.5],[1,0.75],[1,1],[0.75,1],[0.5,1],[0.25,1],[0,1],[0,0.75],[0,0.5],[0,0.25]];outlineConnect=0;gradientColor=none;html=1;whiteSpace=wrap;fontSize=12;fontStyle=0;container=1;pointerEvents=0;collapsible=0;recursiveResize=0;shape=mxgraph.aws4.group;grIcon=mxgraph.aws4.group_security_group;grStroke=0;strokeColor=#147EBA;fillColor=#E6F2F8;verticalAlign=top;align=left;spacingLeft=30;fontColor=#147EBA;dashed=0;" vertex="1" parent="1">
          <mxGeometry x="7443" y="120" width="357" height="260" as="geometry" />
        </mxCell>
        <mxCell id="HLCbXC__rA61MA5NDTQK-74" value="" style="rounded=1;arcSize=10;dashed=1;strokeColor=#ff0000;fillColor=none;gradientColor=none;dashPattern=8 4;strokeWidth=2;" parent="CTFJwCtAbw5jruC2qFMy-30" vertex="1">
          <mxGeometry x="82.5" y="45" width="150" height="160" as="geometry" />
        </mxCell>
        <mxCell id="HLCbXC__rA61MA5NDTQK-55" value="" style="sketch=0;points=[[0,0,0],[0.25,0,0],[0.5,0,0],[0.75,0,0],[1,0,0],[0,1,0],[0.25,1,0],[0.5,1,0],[0.75,1,0],[1,1,0],[0,0.25,0],[0,0.5,0],[0,0.75,0],[1,0.25,0],[1,0.5,0],[1,0.75,0]];outlineConnect=0;fontColor=#232F3E;gradientColor=#F78E04;gradientDirection=north;fillColor=#D05C17;strokeColor=#ffffff;dashed=0;verticalLabelPosition=bottom;verticalAlign=top;align=center;html=1;fontSize=12;fontStyle=0;aspect=fixed;shape=mxgraph.aws4.resourceIcon;resIcon=mxgraph.aws4.ec2;" parent="CTFJwCtAbw5jruC2qFMy-30" vertex="1">
          <mxGeometry x="118.49791208791248" y="100.99830508474577" width="78" height="78" as="geometry" />
        </mxCell>
        <mxCell id="HLCbXC__rA61MA5NDTQK-58" value="BI Server" style="text;html=1;align=center;verticalAlign=middle;resizable=0;points=[];autosize=1;strokeColor=none;fillColor=none;" parent="CTFJwCtAbw5jruC2qFMy-30" vertex="1">
          <mxGeometry x="122.5" y="71" width="70" height="30" as="geometry" />
        </mxCell>
        <mxCell id="CTFJwCtAbw5jruC2qFMy-24" value="Private subnet" style="points=[[0,0],[0.25,0],[0.5,0],[0.75,0],[1,0],[1,0.25],[1,0.5],[1,0.75],[1,1],[0.75,1],[0.5,1],[0.25,1],[0,1],[0,0.75],[0,0.5],[0,0.25]];outlineConnect=0;gradientColor=none;html=1;whiteSpace=wrap;fontSize=12;fontStyle=0;container=1;pointerEvents=0;collapsible=0;recursiveResize=0;shape=mxgraph.aws4.group;grIcon=mxgraph.aws4.group_security_group;grStroke=0;strokeColor=#147EBA;fillColor=#E6F2F8;verticalAlign=top;align=left;spacingLeft=30;fontColor=#147EBA;dashed=0;" vertex="1" parent="1">
          <mxGeometry x="7443" y="-168" width="357" height="258" as="geometry" />
        </mxCell>
        <mxCell id="HLCbXC__rA61MA5NDTQK-71" value="" style="rounded=1;arcSize=10;dashed=1;strokeColor=#ff0000;fillColor=none;gradientColor=none;dashPattern=8 4;strokeWidth=2;" parent="CTFJwCtAbw5jruC2qFMy-24" vertex="1">
          <mxGeometry x="59" y="51" width="223" height="156" as="geometry" />
        </mxCell>
        <mxCell id="HLCbXC__rA61MA5NDTQK-54" value="" style="sketch=0;points=[[0,0,0],[0.25,0,0],[0.5,0,0],[0.75,0,0],[1,0,0],[0,1,0],[0.25,1,0],[0.5,1,0],[0.75,1,0],[1,1,0],[0,0.25,0],[0,0.5,0],[0,0.75,0],[1,0.25,0],[1,0.5,0],[1,0.75,0]];outlineConnect=0;fontColor=#232F3E;gradientColor=#F78E04;gradientDirection=north;fillColor=#D05C17;strokeColor=#ffffff;dashed=0;verticalLabelPosition=bottom;verticalAlign=top;align=center;html=1;fontSize=12;fontStyle=0;aspect=fixed;shape=mxgraph.aws4.resourceIcon;resIcon=mxgraph.aws4.ec2;" parent="CTFJwCtAbw5jruC2qFMy-24" vertex="1">
          <mxGeometry x="89.49791208791248" y="104.99830508474577" width="78" height="78" as="geometry" />
        </mxCell>
        <mxCell id="HLCbXC__rA61MA5NDTQK-64" value="" style="sketch=0;points=[[0,0,0],[0.25,0,0],[0.5,0,0],[0.75,0,0],[1,0,0],[0,1,0],[0.25,1,0],[0.5,1,0],[0.75,1,0],[1,1,0],[0,0.25,0],[0,0.5,0],[0,0.75,0],[1,0.25,0],[1,0.5,0],[1,0.75,0]];outlineConnect=0;fontColor=#232F3E;gradientColor=#F78E04;gradientDirection=north;fillColor=#D05C17;strokeColor=#ffffff;dashed=0;verticalLabelPosition=bottom;verticalAlign=top;align=center;html=1;fontSize=12;fontStyle=0;aspect=fixed;shape=mxgraph.aws4.resourceIcon;resIcon=mxgraph.aws4.ec2;" parent="CTFJwCtAbw5jruC2qFMy-24" vertex="1">
          <mxGeometry x="179.49791208791248" y="104.99830508474577" width="78" height="78" as="geometry" />
        </mxCell>
        <mxCell id="HLCbXC__rA61MA5NDTQK-57" value="Interoperability Server&lt;br&gt;Clinic + UCI" style="text;html=1;align=center;verticalAlign=middle;resizable=0;points=[];autosize=1;strokeColor=none;fillColor=none;" parent="CTFJwCtAbw5jruC2qFMy-24" vertex="1">
          <mxGeometry x="109.5" y="70" width="140" height="40" as="geometry" />
        </mxCell>
        <mxCell id="CTFJwCtAbw5jruC2qFMy-9" value="Private subnet" style="points=[[0,0],[0.25,0],[0.5,0],[0.75,0],[1,0],[1,0.25],[1,0.5],[1,0.75],[1,1],[0.75,1],[0.5,1],[0.25,1],[0,1],[0,0.75],[0,0.5],[0,0.25]];outlineConnect=0;gradientColor=none;html=1;whiteSpace=wrap;fontSize=12;fontStyle=0;container=1;pointerEvents=0;collapsible=0;recursiveResize=0;shape=mxgraph.aws4.group;grIcon=mxgraph.aws4.group_security_group;grStroke=0;strokeColor=#147EBA;fillColor=#E6F2F8;verticalAlign=top;align=left;spacingLeft=30;fontColor=#147EBA;dashed=0;" vertex="1" parent="1">
          <mxGeometry x="7840" y="-640" width="320" height="280" as="geometry" />
        </mxCell>
        <mxCell id="CTFJwCtAbw5jruC2qFMy-31" style="edgeStyle=orthogonalEdgeStyle;rounded=0;orthogonalLoop=1;jettySize=auto;html=1;startArrow=classic;startFill=1;" edge="1" parent="CTFJwCtAbw5jruC2qFMy-9" source="HLCbXC__rA61MA5NDTQK-169">
          <mxGeometry relative="1" as="geometry">
            <mxPoint x="162" y="360" as="targetPoint" />
          </mxGeometry>
        </mxCell>
        <mxCell id="HLCbXC__rA61MA5NDTQK-169" value="" style="rounded=1;arcSize=10;dashed=1;strokeColor=#ff0000;fillColor=none;gradientColor=none;dashPattern=8 4;strokeWidth=2;" parent="CTFJwCtAbw5jruC2qFMy-9" vertex="1">
          <mxGeometry x="52" y="81" width="220" height="160" as="geometry" />
        </mxCell>
        <mxCell id="HLCbXC__rA61MA5NDTQK-173" value="APP SERVER" style="text;html=1;align=center;verticalAlign=middle;resizable=0;points=[];autosize=1;strokeColor=none;fillColor=none;" parent="CTFJwCtAbw5jruC2qFMy-9" vertex="1">
          <mxGeometry x="112" y="101" width="100" height="30" as="geometry" />
        </mxCell>
        <mxCell id="HLCbXC__rA61MA5NDTQK-180" value="" style="sketch=0;points=[[0,0,0],[0.25,0,0],[0.5,0,0],[0.75,0,0],[1,0,0],[0,1,0],[0.25,1,0],[0.5,1,0],[0.75,1,0],[1,1,0],[0,0.25,0],[0,0.5,0],[0,0.75,0],[1,0.25,0],[1,0.5,0],[1,0.75,0]];outlineConnect=0;fontColor=#232F3E;gradientColor=#F78E04;gradientDirection=north;fillColor=#D05C17;strokeColor=#ffffff;dashed=0;verticalLabelPosition=bottom;verticalAlign=top;align=center;html=1;fontSize=12;fontStyle=0;aspect=fixed;shape=mxgraph.aws4.resourceIcon;resIcon=mxgraph.aws4.ec2;" parent="CTFJwCtAbw5jruC2qFMy-9" vertex="1">
          <mxGeometry x="158.99791208791248" y="140.99830508474588" width="78" height="78" as="geometry" />
        </mxCell>
        <mxCell id="HLCbXC__rA61MA5NDTQK-179" value="" style="sketch=0;points=[[0,0,0],[0.25,0,0],[0.5,0,0],[0.75,0,0],[1,0,0],[0,1,0],[0.25,1,0],[0.5,1,0],[0.75,1,0],[1,1,0],[0,0.25,0],[0,0.5,0],[0,0.75,0],[1,0.25,0],[1,0.5,0],[1,0.75,0]];outlineConnect=0;fontColor=#232F3E;gradientColor=#F78E04;gradientDirection=north;fillColor=#D05C17;strokeColor=#ffffff;dashed=0;verticalLabelPosition=bottom;verticalAlign=top;align=center;html=1;fontSize=12;fontStyle=0;aspect=fixed;shape=mxgraph.aws4.resourceIcon;resIcon=mxgraph.aws4.ec2;" parent="CTFJwCtAbw5jruC2qFMy-9" vertex="1">
          <mxGeometry x="71.99791208791248" y="140.99830508474588" width="78" height="78" as="geometry" />
        </mxCell>
        <mxCell id="HLCbXC__rA61MA5NDTQK-185" value="&lt;b style=&quot;font-size: 22px;&quot;&gt;&lt;font face=&quot;Calibri&quot;&gt;EMPI + CSH&lt;/font&gt;&lt;/b&gt;" style="text;html=1;strokeColor=none;fillColor=none;align=center;verticalAlign=middle;whiteSpace=wrap;rounded=0;" parent="CTFJwCtAbw5jruC2qFMy-9" vertex="1">
          <mxGeometry x="2" y="40" width="307" height="30" as="geometry" />
        </mxCell>
        <mxCell id="HLCbXC__rA61MA5NDTQK-59" value="Private subnet" style="points=[[0,0],[0.25,0],[0.5,0],[0.75,0],[1,0],[1,0.25],[1,0.5],[1,0.75],[1,1],[0.75,1],[0.5,1],[0.25,1],[0,1],[0,0.75],[0,0.5],[0,0.25]];outlineConnect=0;gradientColor=none;html=1;whiteSpace=wrap;fontSize=12;fontStyle=0;container=1;pointerEvents=0;collapsible=0;recursiveResize=0;shape=mxgraph.aws4.group;grIcon=mxgraph.aws4.group_security_group;grStroke=0;strokeColor=#147EBA;fillColor=#E6F2F8;verticalAlign=top;align=left;spacingLeft=30;fontColor=#147EBA;dashed=0;" parent="1" vertex="1">
          <mxGeometry x="7443" y="440" width="717" height="334" as="geometry" />
        </mxCell>
        <mxCell id="HLCbXC__rA61MA5NDTQK-60" value="&lt;p style=&quot;language:es-CL;margin-top:0pt;margin-bottom:0pt;margin-left:0in;&lt;br/&gt;text-align:left;direction:ltr;unicode-bidi:embed;vertical-align:bottom;&lt;br/&gt;mso-line-break-override:none;word-break:normal;punctuation-wrap:hanging&quot;&gt;Amazon&lt;br&gt;RDS for PostgreSQL&lt;/p&gt;&lt;p style=&quot;language:es-CL;margin-top:0pt;margin-bottom:0pt;margin-left:0in;&lt;br/&gt;text-align:left;direction:ltr;unicode-bidi:embed;vertical-align:bottom;&lt;br/&gt;mso-line-break-override:none;word-break:normal;punctuation-wrap:hanging&quot;&gt;Clinic + UCI&lt;/p&gt;" style="sketch=0;outlineConnect=0;fontColor=#232F3E;gradientColor=none;fillColor=#2E27AD;strokeColor=none;dashed=0;verticalLabelPosition=bottom;verticalAlign=top;align=center;html=1;fontSize=12;fontStyle=0;aspect=fixed;pointerEvents=1;shape=mxgraph.aws4.rds_postgresql_instance;" parent="HLCbXC__rA61MA5NDTQK-59" vertex="1">
          <mxGeometry x="118.5" y="120" width="78" height="78" as="geometry" />
        </mxCell>
        <mxCell id="CTFJwCtAbw5jruC2qFMy-21" value="&lt;p style=&quot;language:es-CL;margin-top:0pt;margin-bottom:0pt;margin-left:0in;&lt;br/&gt;text-align:left;direction:ltr;unicode-bidi:embed;vertical-align:bottom;&lt;br/&gt;mso-line-break-override:none;word-break:normal;punctuation-wrap:hanging&quot;&gt;Amazon&lt;br&gt;RDS for PostgreSQL&lt;/p&gt;&lt;p style=&quot;language:es-CL;margin-top:0pt;margin-bottom:0pt;margin-left:0in;&lt;br/&gt;text-align:left;direction:ltr;unicode-bidi:embed;vertical-align:bottom;&lt;br/&gt;mso-line-break-override:none;word-break:normal;punctuation-wrap:hanging&quot;&gt;EMPI + CSH&lt;/p&gt;" style="sketch=0;outlineConnect=0;fontColor=#232F3E;gradientColor=none;fillColor=#2E27AD;strokeColor=none;dashed=0;verticalLabelPosition=bottom;verticalAlign=top;align=center;html=1;fontSize=12;fontStyle=0;aspect=fixed;pointerEvents=1;shape=mxgraph.aws4.rds_postgresql_instance;" vertex="1" parent="HLCbXC__rA61MA5NDTQK-59">
          <mxGeometry x="516.5" y="120" width="78" height="78" as="geometry" />
        </mxCell>
        <mxCell id="CTFJwCtAbw5jruC2qFMy-43" style="edgeStyle=elbowEdgeStyle;rounded=0;orthogonalLoop=1;jettySize=auto;html=1;exitX=1;exitY=0.467;exitDx=0;exitDy=0;startArrow=classic;startFill=1;exitPerimeter=0;" edge="1" parent="HLCbXC__rA61MA5NDTQK-59">
          <mxGeometry relative="1" as="geometry">
            <mxPoint x="316.5" y="-871.9965" as="sourcePoint" />
            <mxPoint x="196.5" y="170.01999999999998" as="targetPoint" />
            <Array as="points">
              <mxPoint x="331.5" y="-344.23" />
            </Array>
          </mxGeometry>
        </mxCell>
        <mxCell id="HLCbXC__rA61MA5NDTQK-8" value="Private subnet" style="points=[[0,0],[0.25,0],[0.5,0],[0.75,0],[1,0],[1,0.25],[1,0.5],[1,0.75],[1,1],[0.75,1],[0.5,1],[0.25,1],[0,1],[0,0.75],[0,0.5],[0,0.25]];outlineConnect=0;gradientColor=none;html=1;whiteSpace=wrap;fontSize=12;fontStyle=0;container=1;pointerEvents=0;collapsible=0;recursiveResize=0;shape=mxgraph.aws4.group;grIcon=mxgraph.aws4.group_security_group;grStroke=0;strokeColor=#147EBA;fillColor=#E6F2F8;verticalAlign=top;align=left;spacingLeft=30;fontColor=#147EBA;dashed=0;" parent="1" vertex="1">
          <mxGeometry x="6203" y="-680" width="417" height="560" as="geometry" />
        </mxCell>
        <mxCell id="HLCbXC__rA61MA5NDTQK-12" value="" style="sketch=0;points=[[0,0,0],[0.25,0,0],[0.5,0,0],[0.75,0,0],[1,0,0],[0,1,0],[0.25,1,0],[0.5,1,0],[0.75,1,0],[1,1,0],[0,0.25,0],[0,0.5,0],[0,0.75,0],[1,0.25,0],[1,0.5,0],[1,0.75,0]];outlineConnect=0;fontColor=#232F3E;gradientColor=#F78E04;gradientDirection=north;fillColor=#D05C17;strokeColor=#ffffff;dashed=0;verticalLabelPosition=bottom;verticalAlign=top;align=center;html=1;fontSize=12;fontStyle=0;aspect=fixed;shape=mxgraph.aws4.resourceIcon;resIcon=mxgraph.aws4.ec2;" parent="HLCbXC__rA61MA5NDTQK-8" vertex="1">
          <mxGeometry x="40" y="99.99830508474577" width="78" height="78" as="geometry" />
        </mxCell>
        <mxCell id="CTFJwCtAbw5jruC2qFMy-61" style="rounded=0;orthogonalLoop=1;jettySize=auto;html=1;exitX=0.5;exitY=0;exitDx=0;exitDy=0;exitPerimeter=0;startArrow=classic;startFill=1;" edge="1" parent="HLCbXC__rA61MA5NDTQK-8" target="HLCbXC__rA61MA5NDTQK-12">
          <mxGeometry relative="1" as="geometry">
            <mxPoint x="78" y="244.99830508474588" as="sourcePoint" />
            <mxPoint x="75.89999999999964" y="179.17000000000007" as="targetPoint" />
          </mxGeometry>
        </mxCell>
        <mxCell id="HLCbXC__rA61MA5NDTQK-13" value="" style="sketch=0;points=[[0,0,0],[0.25,0,0],[0.5,0,0],[0.75,0,0],[1,0,0],[0,1,0],[0.25,1,0],[0.5,1,0],[0.75,1,0],[1,1,0],[0,0.25,0],[0,0.5,0],[0,0.75,0],[1,0.25,0],[1,0.5,0],[1,0.75,0]];outlineConnect=0;fontColor=#232F3E;gradientColor=#F78E04;gradientDirection=north;fillColor=#D05C17;strokeColor=#ffffff;dashed=0;verticalLabelPosition=bottom;verticalAlign=top;align=center;html=1;fontSize=12;fontStyle=0;aspect=fixed;shape=mxgraph.aws4.resourceIcon;resIcon=mxgraph.aws4.ec2;" parent="HLCbXC__rA61MA5NDTQK-8" vertex="1">
          <mxGeometry x="38" y="244.99830508474577" width="78" height="78" as="geometry" />
        </mxCell>
        <mxCell id="HLCbXC__rA61MA5NDTQK-14" value="" style="sketch=0;points=[[0,0,0],[0.25,0,0],[0.5,0,0],[0.75,0,0],[1,0,0],[0,1,0],[0.25,1,0],[0.5,1,0],[0.75,1,0],[1,1,0],[0,0.25,0],[0,0.5,0],[0,0.75,0],[1,0.25,0],[1,0.5,0],[1,0.75,0]];outlineConnect=0;fontColor=#232F3E;gradientColor=#F78E04;gradientDirection=north;fillColor=#D05C17;strokeColor=#ffffff;dashed=0;verticalLabelPosition=bottom;verticalAlign=top;align=center;html=1;fontSize=12;fontStyle=0;aspect=fixed;shape=mxgraph.aws4.resourceIcon;resIcon=mxgraph.aws4.ec2;" parent="HLCbXC__rA61MA5NDTQK-8" vertex="1">
          <mxGeometry x="40" y="384.99830508474577" width="78" height="78" as="geometry" />
        </mxCell>
        <mxCell id="HLCbXC__rA61MA5NDTQK-25" value="APP SERVER" style="text;html=1;align=center;verticalAlign=middle;resizable=0;points=[];autosize=1;strokeColor=none;fillColor=none;" parent="HLCbXC__rA61MA5NDTQK-8" vertex="1">
          <mxGeometry x="31" y="178" width="100" height="30" as="geometry" />
        </mxCell>
        <mxCell id="HLCbXC__rA61MA5NDTQK-27" value="Interoperability Server" style="text;html=1;align=center;verticalAlign=middle;resizable=0;points=[];autosize=1;strokeColor=none;fillColor=none;" parent="HLCbXC__rA61MA5NDTQK-8" vertex="1">
          <mxGeometry x="20" y="323" width="140" height="30" as="geometry" />
        </mxCell>
        <mxCell id="HLCbXC__rA61MA5NDTQK-26" value="BI Server" style="text;html=1;align=center;verticalAlign=middle;resizable=0;points=[];autosize=1;strokeColor=none;fillColor=none;" parent="HLCbXC__rA61MA5NDTQK-8" vertex="1">
          <mxGeometry x="44" y="475" width="70" height="30" as="geometry" />
        </mxCell>
        <mxCell id="HLCbXC__rA61MA5NDTQK-78" value="&lt;b style=&quot;font-size: 22px;&quot;&gt;&lt;span style=&quot;font-family: Calibri;&quot;&gt;Clinic&lt;/span&gt;&lt;span style=&quot;font-family: Calibri;&quot;&gt; + UCI&lt;/span&gt;&lt;/b&gt;" style="text;html=1;strokeColor=none;fillColor=none;align=center;verticalAlign=middle;whiteSpace=wrap;rounded=0;" parent="HLCbXC__rA61MA5NDTQK-8" vertex="1">
          <mxGeometry x="4.5" y="50" width="171" height="30" as="geometry" />
        </mxCell>
        <mxCell id="CTFJwCtAbw5jruC2qFMy-62" value="" style="sketch=0;points=[[0,0,0],[0.25,0,0],[0.5,0,0],[0.75,0,0],[1,0,0],[0,1,0],[0.25,1,0],[0.5,1,0],[0.75,1,0],[1,1,0],[0,0.25,0],[0,0.5,0],[0,0.75,0],[1,0.25,0],[1,0.5,0],[1,0.75,0]];outlineConnect=0;fontColor=#232F3E;gradientColor=#F78E04;gradientDirection=north;fillColor=#D05C17;strokeColor=#ffffff;dashed=0;verticalLabelPosition=bottom;verticalAlign=top;align=center;html=1;fontSize=12;fontStyle=0;aspect=fixed;shape=mxgraph.aws4.resourceIcon;resIcon=mxgraph.aws4.ec2;" vertex="1" parent="HLCbXC__rA61MA5NDTQK-8">
          <mxGeometry x="247" y="99.99830508474577" width="78" height="78" as="geometry" />
        </mxCell>
        <mxCell id="CTFJwCtAbw5jruC2qFMy-77" style="edgeStyle=orthogonalEdgeStyle;rounded=0;orthogonalLoop=1;jettySize=auto;html=1;exitX=0;exitY=0.5;exitDx=0;exitDy=0;exitPerimeter=0;" edge="1" parent="HLCbXC__rA61MA5NDTQK-8" source="CTFJwCtAbw5jruC2qFMy-63">
          <mxGeometry relative="1" as="geometry">
            <mxPoint x="327" y="679.9999999999995" as="targetPoint" />
          </mxGeometry>
        </mxCell>
        <mxCell id="CTFJwCtAbw5jruC2qFMy-63" value="" style="sketch=0;points=[[0,0,0],[0.25,0,0],[0.5,0,0],[0.75,0,0],[1,0,0],[0,1,0],[0.25,1,0],[0.5,1,0],[0.75,1,0],[1,1,0],[0,0.25,0],[0,0.5,0],[0,0.75,0],[1,0.25,0],[1,0.5,0],[1,0.75,0]];outlineConnect=0;fontColor=#232F3E;gradientColor=#F78E04;gradientDirection=north;fillColor=#D05C17;strokeColor=#ffffff;dashed=0;verticalLabelPosition=bottom;verticalAlign=top;align=center;html=1;fontSize=12;fontStyle=0;aspect=fixed;shape=mxgraph.aws4.resourceIcon;resIcon=mxgraph.aws4.ec2;" vertex="1" parent="HLCbXC__rA61MA5NDTQK-8">
          <mxGeometry x="245" y="244.99830508474577" width="78" height="78" as="geometry" />
        </mxCell>
        <mxCell id="CTFJwCtAbw5jruC2qFMy-64" value="APP SERVER" style="text;html=1;align=center;verticalAlign=middle;resizable=0;points=[];autosize=1;strokeColor=none;fillColor=none;" vertex="1" parent="HLCbXC__rA61MA5NDTQK-8">
          <mxGeometry x="238" y="178" width="100" height="30" as="geometry" />
        </mxCell>
        <mxCell id="CTFJwCtAbw5jruC2qFMy-65" value="Interoperability Server" style="text;html=1;align=center;verticalAlign=middle;resizable=0;points=[];autosize=1;strokeColor=none;fillColor=none;" vertex="1" parent="HLCbXC__rA61MA5NDTQK-8">
          <mxGeometry x="227" y="323" width="140" height="30" as="geometry" />
        </mxCell>
        <mxCell id="CTFJwCtAbw5jruC2qFMy-66" value="&lt;span style=&quot;font-size: 22px;&quot;&gt;&lt;b&gt;EMPI + CSH&lt;/b&gt;&lt;/span&gt;" style="text;html=1;strokeColor=none;fillColor=none;align=center;verticalAlign=middle;whiteSpace=wrap;rounded=0;" vertex="1" parent="HLCbXC__rA61MA5NDTQK-8">
          <mxGeometry x="211.5" y="50" width="171" height="30" as="geometry" />
        </mxCell>
        <mxCell id="CTFJwCtAbw5jruC2qFMy-73" style="edgeStyle=orthogonalEdgeStyle;rounded=0;orthogonalLoop=1;jettySize=auto;html=1;exitX=1;exitY=0.5;exitDx=0;exitDy=0;exitPerimeter=0;" edge="1" parent="HLCbXC__rA61MA5NDTQK-8">
          <mxGeometry relative="1" as="geometry">
            <mxPoint x="113" y="138.99830508474588" as="sourcePoint" />
            <mxPoint x="93.97560975609758" y="687" as="targetPoint" />
            <Array as="points">
              <mxPoint x="139" y="139" />
              <mxPoint x="139" y="540" />
              <mxPoint x="99" y="540" />
              <mxPoint x="99" y="687" />
            </Array>
          </mxGeometry>
        </mxCell>
        <mxCell id="CTFJwCtAbw5jruC2qFMy-35" style="edgeStyle=orthogonalEdgeStyle;rounded=0;orthogonalLoop=1;jettySize=auto;html=1;startArrow=classic;startFill=1;" edge="1" parent="1" source="CTFJwCtAbw5jruC2qFMy-22" target="HLCbXC__rA61MA5NDTQK-70">
          <mxGeometry relative="1" as="geometry" />
        </mxCell>
        <mxCell id="CTFJwCtAbw5jruC2qFMy-36" style="rounded=0;orthogonalLoop=1;jettySize=auto;html=1;entryX=0.5;entryY=0;entryDx=0;entryDy=0;startArrow=classic;startFill=1;" edge="1" parent="1" source="CTFJwCtAbw5jruC2qFMy-22" target="HLCbXC__rA61MA5NDTQK-71">
          <mxGeometry relative="1" as="geometry" />
        </mxCell>
        <mxCell id="CTFJwCtAbw5jruC2qFMy-22" value="" style="sketch=0;outlineConnect=0;fontColor=#232F3E;gradientColor=none;fillColor=#4D27AA;strokeColor=none;dashed=0;verticalLabelPosition=bottom;verticalAlign=top;align=center;html=1;fontSize=12;fontStyle=0;aspect=fixed;pointerEvents=1;shape=mxgraph.aws4.application_load_balancer;" vertex="1" parent="1">
          <mxGeometry x="7574.5" y="-260" width="78" height="78" as="geometry" />
        </mxCell>
        <mxCell id="CTFJwCtAbw5jruC2qFMy-23" value="" style="sketch=0;outlineConnect=0;fontColor=#232F3E;gradientColor=none;fillColor=#4D27AA;strokeColor=none;dashed=0;verticalLabelPosition=bottom;verticalAlign=top;align=center;html=1;fontSize=12;fontStyle=0;aspect=fixed;pointerEvents=1;shape=mxgraph.aws4.application_load_balancer;" vertex="1" parent="1">
          <mxGeometry x="7960" y="-268" width="80" height="80" as="geometry" />
        </mxCell>
        <mxCell id="CTFJwCtAbw5jruC2qFMy-25" value="Private subnet" style="points=[[0,0],[0.25,0],[0.5,0],[0.75,0],[1,0],[1,0.25],[1,0.5],[1,0.75],[1,1],[0.75,1],[0.5,1],[0.25,1],[0,1],[0,0.75],[0,0.5],[0,0.25]];outlineConnect=0;gradientColor=none;html=1;whiteSpace=wrap;fontSize=12;fontStyle=0;container=1;pointerEvents=0;collapsible=0;recursiveResize=0;shape=mxgraph.aws4.group;grIcon=mxgraph.aws4.group_security_group;grStroke=0;strokeColor=#147EBA;fillColor=#E6F2F8;verticalAlign=top;align=left;spacingLeft=30;fontColor=#147EBA;dashed=0;" vertex="1" parent="1">
          <mxGeometry x="7840" y="-160" width="320" height="258" as="geometry" />
        </mxCell>
        <mxCell id="CTFJwCtAbw5jruC2qFMy-32" style="edgeStyle=orthogonalEdgeStyle;rounded=0;orthogonalLoop=1;jettySize=auto;html=1;startArrow=classic;startFill=1;" edge="1" parent="CTFJwCtAbw5jruC2qFMy-25" source="CTFJwCtAbw5jruC2qFMy-26">
          <mxGeometry relative="1" as="geometry">
            <mxPoint x="158.5" y="-20" as="targetPoint" />
          </mxGeometry>
        </mxCell>
        <mxCell id="CTFJwCtAbw5jruC2qFMy-26" value="" style="rounded=1;arcSize=10;dashed=1;strokeColor=#ff0000;fillColor=none;gradientColor=none;dashPattern=8 4;strokeWidth=2;" vertex="1" parent="CTFJwCtAbw5jruC2qFMy-25">
          <mxGeometry x="47" y="54" width="223" height="156" as="geometry" />
        </mxCell>
        <mxCell id="CTFJwCtAbw5jruC2qFMy-27" value="" style="sketch=0;points=[[0,0,0],[0.25,0,0],[0.5,0,0],[0.75,0,0],[1,0,0],[0,1,0],[0.25,1,0],[0.5,1,0],[0.75,1,0],[1,1,0],[0,0.25,0],[0,0.5,0],[0,0.75,0],[1,0.25,0],[1,0.5,0],[1,0.75,0]];outlineConnect=0;fontColor=#232F3E;gradientColor=#F78E04;gradientDirection=north;fillColor=#D05C17;strokeColor=#ffffff;dashed=0;verticalLabelPosition=bottom;verticalAlign=top;align=center;html=1;fontSize=12;fontStyle=0;aspect=fixed;shape=mxgraph.aws4.resourceIcon;resIcon=mxgraph.aws4.ec2;" vertex="1" parent="CTFJwCtAbw5jruC2qFMy-25">
          <mxGeometry x="77.49791208791248" y="107.99830508474577" width="78" height="78" as="geometry" />
        </mxCell>
        <mxCell id="CTFJwCtAbw5jruC2qFMy-28" value="" style="sketch=0;points=[[0,0,0],[0.25,0,0],[0.5,0,0],[0.75,0,0],[1,0,0],[0,1,0],[0.25,1,0],[0.5,1,0],[0.75,1,0],[1,1,0],[0,0.25,0],[0,0.5,0],[0,0.75,0],[1,0.25,0],[1,0.5,0],[1,0.75,0]];outlineConnect=0;fontColor=#232F3E;gradientColor=#F78E04;gradientDirection=north;fillColor=#D05C17;strokeColor=#ffffff;dashed=0;verticalLabelPosition=bottom;verticalAlign=top;align=center;html=1;fontSize=12;fontStyle=0;aspect=fixed;shape=mxgraph.aws4.resourceIcon;resIcon=mxgraph.aws4.ec2;" vertex="1" parent="CTFJwCtAbw5jruC2qFMy-25">
          <mxGeometry x="167.49791208791248" y="107.99830508474577" width="78" height="78" as="geometry" />
        </mxCell>
        <mxCell id="CTFJwCtAbw5jruC2qFMy-29" value="Interoperability Server&lt;br&gt;EMPI + CSH" style="text;html=1;align=center;verticalAlign=middle;resizable=0;points=[];autosize=1;strokeColor=none;fillColor=none;" vertex="1" parent="CTFJwCtAbw5jruC2qFMy-25">
          <mxGeometry x="97.5" y="73" width="140" height="40" as="geometry" />
        </mxCell>
        <mxCell id="CTFJwCtAbw5jruC2qFMy-33" style="rounded=0;orthogonalLoop=1;jettySize=auto;html=1;startArrow=classic;startFill=1;" edge="1" parent="1" source="CTFJwCtAbw5jruC2qFMy-26" target="CTFJwCtAbw5jruC2qFMy-21">
          <mxGeometry relative="1" as="geometry" />
        </mxCell>
        <mxCell id="CTFJwCtAbw5jruC2qFMy-34" style="rounded=0;orthogonalLoop=1;jettySize=auto;html=1;exitX=1;exitY=0.5;exitDx=0;exitDy=0;edgeStyle=elbowEdgeStyle;startArrow=classic;startFill=1;" edge="1" parent="1" source="HLCbXC__rA61MA5NDTQK-169" target="CTFJwCtAbw5jruC2qFMy-21">
          <mxGeometry relative="1" as="geometry">
            <Array as="points">
              <mxPoint x="8140" y="70" />
            </Array>
          </mxGeometry>
        </mxCell>
        <mxCell id="CTFJwCtAbw5jruC2qFMy-39" style="edgeStyle=orthogonalEdgeStyle;rounded=0;orthogonalLoop=1;jettySize=auto;html=1;exitX=1;exitY=0.5;exitDx=0;exitDy=0;startArrow=classic;startFill=1;" edge="1" parent="1" source="HLCbXC__rA61MA5NDTQK-71" target="HLCbXC__rA61MA5NDTQK-60">
          <mxGeometry relative="1" as="geometry">
            <Array as="points">
              <mxPoint x="7745" y="-39" />
              <mxPoint x="7745" y="610" />
            </Array>
          </mxGeometry>
        </mxCell>
        <mxCell id="CTFJwCtAbw5jruC2qFMy-40" style="edgeStyle=orthogonalEdgeStyle;rounded=0;orthogonalLoop=1;jettySize=auto;html=1;startArrow=classic;startFill=1;" edge="1" parent="1" source="HLCbXC__rA61MA5NDTQK-74" target="HLCbXC__rA61MA5NDTQK-60">
          <mxGeometry relative="1" as="geometry" />
        </mxCell>
        <mxCell id="CTFJwCtAbw5jruC2qFMy-44" value="Private subnet" style="points=[[0,0],[0.25,0],[0.5,0],[0.75,0],[1,0],[1,0.25],[1,0.5],[1,0.75],[1,1],[0.75,1],[0.5,1],[0.25,1],[0,1],[0,0.75],[0,0.5],[0,0.25]];outlineConnect=0;gradientColor=none;html=1;whiteSpace=wrap;fontSize=12;fontStyle=0;container=1;pointerEvents=0;collapsible=0;recursiveResize=0;shape=mxgraph.aws4.group;grIcon=mxgraph.aws4.group_security_group;grStroke=0;strokeColor=#147EBA;fillColor=#E6F2F8;verticalAlign=top;align=left;spacingLeft=30;fontColor=#147EBA;dashed=0;" vertex="1" parent="1">
          <mxGeometry x="6430" y="-1350" width="1100" height="312" as="geometry" />
        </mxCell>
        <mxCell id="CTFJwCtAbw5jruC2qFMy-48" style="edgeStyle=orthogonalEdgeStyle;rounded=0;orthogonalLoop=1;jettySize=auto;html=1;" edge="1" parent="1" source="CTFJwCtAbw5jruC2qFMy-45">
          <mxGeometry relative="1" as="geometry">
            <mxPoint x="7630" y="-690" as="targetPoint" />
          </mxGeometry>
        </mxCell>
        <mxCell id="CTFJwCtAbw5jruC2qFMy-49" style="edgeStyle=orthogonalEdgeStyle;rounded=0;orthogonalLoop=1;jettySize=auto;html=1;" edge="1" parent="1" source="CTFJwCtAbw5jruC2qFMy-45">
          <mxGeometry relative="1" as="geometry">
            <mxPoint x="6980" y="-720" as="targetPoint" />
          </mxGeometry>
        </mxCell>
        <mxCell id="CTFJwCtAbw5jruC2qFMy-50" style="edgeStyle=orthogonalEdgeStyle;rounded=0;orthogonalLoop=1;jettySize=auto;html=1;" edge="1" parent="1" source="CTFJwCtAbw5jruC2qFMy-45">
          <mxGeometry relative="1" as="geometry">
            <mxPoint x="6330" y="-720" as="targetPoint" />
          </mxGeometry>
        </mxCell>
        <mxCell id="CTFJwCtAbw5jruC2qFMy-45" value="" style="sketch=0;outlineConnect=0;fontColor=#232F3E;gradientColor=none;fillColor=#4D27AA;strokeColor=none;dashed=0;verticalLabelPosition=bottom;verticalAlign=top;align=center;html=1;fontSize=12;fontStyle=0;aspect=fixed;pointerEvents=1;shape=mxgraph.aws4.peering;" vertex="1" parent="1">
          <mxGeometry x="6941" y="-940" width="78" height="78" as="geometry" />
        </mxCell>
        <mxCell id="CTFJwCtAbw5jruC2qFMy-47" style="edgeStyle=orthogonalEdgeStyle;rounded=0;orthogonalLoop=1;jettySize=auto;html=1;" edge="1" parent="1" source="HLCbXC__rA61MA5NDTQK-81" target="CTFJwCtAbw5jruC2qFMy-45">
          <mxGeometry relative="1" as="geometry" />
        </mxCell>
        <mxCell id="CTFJwCtAbw5jruC2qFMy-51" value="VPC" style="points=[[0,0],[0.25,0],[0.5,0],[0.75,0],[1,0],[1,0.25],[1,0.5],[1,0.75],[1,1],[0.75,1],[0.5,1],[0.25,1],[0,1],[0,0.75],[0,0.5],[0,0.25]];outlineConnect=0;gradientColor=none;html=1;whiteSpace=wrap;fontSize=12;fontStyle=0;container=1;pointerEvents=0;collapsible=0;recursiveResize=0;shape=mxgraph.aws4.group;grIcon=mxgraph.aws4.group_vpc;strokeColor=#248814;fillColor=none;verticalAlign=top;align=left;spacingLeft=30;fontColor=#AAB7B8;dashed=0;" vertex="1" parent="1">
          <mxGeometry x="6400" y="-1370" width="1160" height="360" as="geometry" />
        </mxCell>
        <mxCell id="CTFJwCtAbw5jruC2qFMy-52" value="VPC" style="points=[[0,0],[0.25,0],[0.5,0],[0.75,0],[1,0],[1,0.25],[1,0.5],[1,0.75],[1,1],[0.75,1],[0.5,1],[0.25,1],[0,1],[0,0.75],[0,0.5],[0,0.25]];outlineConnect=0;gradientColor=none;html=1;whiteSpace=wrap;fontSize=12;fontStyle=0;container=1;pointerEvents=0;collapsible=0;recursiveResize=0;shape=mxgraph.aws4.group;grIcon=mxgraph.aws4.group_vpc;strokeColor=#248814;fillColor=none;verticalAlign=top;align=left;spacingLeft=30;fontColor=#AAB7B8;dashed=0;" vertex="1" parent="1">
          <mxGeometry x="7420" y="-680" width="770" height="1490" as="geometry" />
        </mxCell>
        <mxCell id="CTFJwCtAbw5jruC2qFMy-57" value="" style="rounded=1;arcSize=10;dashed=1;strokeColor=#ff0000;fillColor=none;gradientColor=none;dashPattern=8 4;strokeWidth=2;" vertex="1" parent="CTFJwCtAbw5jruC2qFMy-52">
          <mxGeometry x="109.5" y="1216" width="150" height="160" as="geometry" />
        </mxCell>
        <mxCell id="CTFJwCtAbw5jruC2qFMy-58" value="" style="rounded=1;arcSize=10;dashed=1;strokeColor=#ff0000;fillColor=none;gradientColor=none;dashPattern=8 4;strokeWidth=2;" vertex="1" parent="CTFJwCtAbw5jruC2qFMy-52">
          <mxGeometry x="507.5" y="1216" width="150" height="160" as="geometry" />
        </mxCell>
        <mxCell id="CTFJwCtAbw5jruC2qFMy-67" value="Private subnet" style="points=[[0,0],[0.25,0],[0.5,0],[0.75,0],[1,0],[1,0.25],[1,0.5],[1,0.75],[1,1],[0.75,1],[0.5,1],[0.25,1],[0,1],[0,0.75],[0,0.5],[0,0.25]];outlineConnect=0;gradientColor=none;html=1;whiteSpace=wrap;fontSize=12;fontStyle=0;container=1;pointerEvents=0;collapsible=0;recursiveResize=0;shape=mxgraph.aws4.group;grIcon=mxgraph.aws4.group_security_group;grStroke=0;strokeColor=#147EBA;fillColor=#E6F2F8;verticalAlign=top;align=left;spacingLeft=30;fontColor=#147EBA;dashed=0;" vertex="1" parent="1">
          <mxGeometry x="6196.5" y="-80" width="430" height="334" as="geometry" />
        </mxCell>
        <mxCell id="CTFJwCtAbw5jruC2qFMy-68" value="&lt;p style=&quot;language:es-CL;margin-top:0pt;margin-bottom:0pt;margin-left:0in;&lt;br/&gt;text-align:left;direction:ltr;unicode-bidi:embed;vertical-align:bottom;&lt;br/&gt;mso-line-break-override:none;word-break:normal;punctuation-wrap:hanging&quot;&gt;Amazon&lt;br&gt;RDS for PostgreSQL&lt;/p&gt;&lt;p style=&quot;language:es-CL;margin-top:0pt;margin-bottom:0pt;margin-left:0in;&lt;br/&gt;text-align:left;direction:ltr;unicode-bidi:embed;vertical-align:bottom;&lt;br/&gt;mso-line-break-override:none;word-break:normal;punctuation-wrap:hanging&quot;&gt;Clinic + UCI&lt;/p&gt;" style="sketch=0;outlineConnect=0;fontColor=#232F3E;gradientColor=none;fillColor=#2E27AD;strokeColor=none;dashed=0;verticalLabelPosition=bottom;verticalAlign=top;align=center;html=1;fontSize=12;fontStyle=0;aspect=fixed;pointerEvents=1;shape=mxgraph.aws4.rds_postgresql_instance;" vertex="1" parent="CTFJwCtAbw5jruC2qFMy-67">
          <mxGeometry x="62" y="111" width="78" height="78" as="geometry" />
        </mxCell>
        <mxCell id="CTFJwCtAbw5jruC2qFMy-71" value="" style="rounded=1;arcSize=10;dashed=1;strokeColor=#ff0000;fillColor=none;gradientColor=none;dashPattern=8 4;strokeWidth=2;" vertex="1" parent="CTFJwCtAbw5jruC2qFMy-67">
          <mxGeometry x="30" y="87" width="150" height="160" as="geometry" />
        </mxCell>
        <mxCell id="CTFJwCtAbw5jruC2qFMy-69" value="&lt;p style=&quot;language:es-CL;margin-top:0pt;margin-bottom:0pt;margin-left:0in;&lt;br/&gt;text-align:left;direction:ltr;unicode-bidi:embed;vertical-align:bottom;&lt;br/&gt;mso-line-break-override:none;word-break:normal;punctuation-wrap:hanging&quot;&gt;Amazon&lt;br&gt;RDS for PostgreSQL&lt;/p&gt;&lt;p style=&quot;language:es-CL;margin-top:0pt;margin-bottom:0pt;margin-left:0in;&lt;br/&gt;text-align:left;direction:ltr;unicode-bidi:embed;vertical-align:bottom;&lt;br/&gt;mso-line-break-override:none;word-break:normal;punctuation-wrap:hanging&quot;&gt;EMPI + CSH&lt;/p&gt;" style="sketch=0;outlineConnect=0;fontColor=#232F3E;gradientColor=none;fillColor=#2E27AD;strokeColor=none;dashed=0;verticalLabelPosition=bottom;verticalAlign=top;align=center;html=1;fontSize=12;fontStyle=0;aspect=fixed;pointerEvents=1;shape=mxgraph.aws4.rds_postgresql_instance;" vertex="1" parent="CTFJwCtAbw5jruC2qFMy-67">
          <mxGeometry x="292" y="111" width="78" height="78" as="geometry" />
        </mxCell>
        <mxCell id="CTFJwCtAbw5jruC2qFMy-72" value="" style="rounded=1;arcSize=10;dashed=1;strokeColor=#ff0000;fillColor=none;gradientColor=none;dashPattern=8 4;strokeWidth=2;" vertex="1" parent="CTFJwCtAbw5jruC2qFMy-67">
          <mxGeometry x="260" y="87" width="150" height="160" as="geometry" />
        </mxCell>
        <mxCell id="CTFJwCtAbw5jruC2qFMy-74" style="edgeStyle=orthogonalEdgeStyle;rounded=0;orthogonalLoop=1;jettySize=auto;html=1;exitX=1;exitY=0.5;exitDx=0;exitDy=0;exitPerimeter=0;entryX=0.5;entryY=0;entryDx=0;entryDy=0;" edge="1" parent="1">
          <mxGeometry relative="1" as="geometry">
            <mxPoint x="6321" y="-396.0016949152541" as="sourcePoint" />
            <mxPoint x="6303.5" y="7" as="targetPoint" />
            <Array as="points">
              <mxPoint x="6341" y="-396" />
              <mxPoint x="6341" y="-140" />
              <mxPoint x="6304" y="-140" />
            </Array>
          </mxGeometry>
        </mxCell>
        <mxCell id="CTFJwCtAbw5jruC2qFMy-75" style="edgeStyle=orthogonalEdgeStyle;rounded=0;orthogonalLoop=1;jettySize=auto;html=1;entryX=0.5;entryY=0;entryDx=0;entryDy=0;" edge="1" parent="1">
          <mxGeometry relative="1" as="geometry">
            <mxPoint x="6323" y="-256" as="sourcePoint" />
            <mxPoint x="6303.5" y="7" as="targetPoint" />
            <Array as="points">
              <mxPoint x="6342" y="-256" />
              <mxPoint x="6342" y="-140" />
              <mxPoint x="6304" y="-140" />
            </Array>
          </mxGeometry>
        </mxCell>
        <mxCell id="CTFJwCtAbw5jruC2qFMy-76" style="edgeStyle=orthogonalEdgeStyle;rounded=0;orthogonalLoop=1;jettySize=auto;html=1;exitX=0;exitY=0.5;exitDx=0;exitDy=0;exitPerimeter=0;" edge="1" parent="1" source="CTFJwCtAbw5jruC2qFMy-62" target="CTFJwCtAbw5jruC2qFMy-72">
          <mxGeometry relative="1" as="geometry">
            <Array as="points">
              <mxPoint x="6430" y="-541" />
              <mxPoint x="6430" y="-180" />
              <mxPoint x="6531" y="-180" />
            </Array>
          </mxGeometry>
        </mxCell>
        <mxCell id="CTFJwCtAbw5jruC2qFMy-78" value="Private subnet" style="points=[[0,0],[0.25,0],[0.5,0],[0.75,0],[1,0],[1,0.25],[1,0.5],[1,0.75],[1,1],[0.75,1],[0.5,1],[0.25,1],[0,1],[0,0.75],[0,0.5],[0,0.25]];outlineConnect=0;gradientColor=none;html=1;whiteSpace=wrap;fontSize=12;fontStyle=0;container=1;pointerEvents=0;collapsible=0;recursiveResize=0;shape=mxgraph.aws4.group;grIcon=mxgraph.aws4.group_security_group;grStroke=0;strokeColor=#147EBA;fillColor=#E6F2F8;verticalAlign=top;align=left;spacingLeft=30;fontColor=#147EBA;dashed=0;" vertex="1" parent="1">
          <mxGeometry x="6806.5" y="-680" width="417" height="560" as="geometry" />
        </mxCell>
        <mxCell id="CTFJwCtAbw5jruC2qFMy-79" value="" style="sketch=0;points=[[0,0,0],[0.25,0,0],[0.5,0,0],[0.75,0,0],[1,0,0],[0,1,0],[0.25,1,0],[0.5,1,0],[0.75,1,0],[1,1,0],[0,0.25,0],[0,0.5,0],[0,0.75,0],[1,0.25,0],[1,0.5,0],[1,0.75,0]];outlineConnect=0;fontColor=#232F3E;gradientColor=#F78E04;gradientDirection=north;fillColor=#D05C17;strokeColor=#ffffff;dashed=0;verticalLabelPosition=bottom;verticalAlign=top;align=center;html=1;fontSize=12;fontStyle=0;aspect=fixed;shape=mxgraph.aws4.resourceIcon;resIcon=mxgraph.aws4.ec2;" vertex="1" parent="CTFJwCtAbw5jruC2qFMy-78">
          <mxGeometry x="40" y="99.99830508474577" width="78" height="78" as="geometry" />
        </mxCell>
        <mxCell id="CTFJwCtAbw5jruC2qFMy-80" style="rounded=0;orthogonalLoop=1;jettySize=auto;html=1;exitX=0.5;exitY=0;exitDx=0;exitDy=0;exitPerimeter=0;startArrow=classic;startFill=1;" edge="1" parent="CTFJwCtAbw5jruC2qFMy-78" target="CTFJwCtAbw5jruC2qFMy-79">
          <mxGeometry relative="1" as="geometry">
            <mxPoint x="78" y="244.99830508474588" as="sourcePoint" />
            <mxPoint x="75.89999999999964" y="179.17000000000007" as="targetPoint" />
          </mxGeometry>
        </mxCell>
        <mxCell id="CTFJwCtAbw5jruC2qFMy-81" value="" style="sketch=0;points=[[0,0,0],[0.25,0,0],[0.5,0,0],[0.75,0,0],[1,0,0],[0,1,0],[0.25,1,0],[0.5,1,0],[0.75,1,0],[1,1,0],[0,0.25,0],[0,0.5,0],[0,0.75,0],[1,0.25,0],[1,0.5,0],[1,0.75,0]];outlineConnect=0;fontColor=#232F3E;gradientColor=#F78E04;gradientDirection=north;fillColor=#D05C17;strokeColor=#ffffff;dashed=0;verticalLabelPosition=bottom;verticalAlign=top;align=center;html=1;fontSize=12;fontStyle=0;aspect=fixed;shape=mxgraph.aws4.resourceIcon;resIcon=mxgraph.aws4.ec2;" vertex="1" parent="CTFJwCtAbw5jruC2qFMy-78">
          <mxGeometry x="38" y="244.99830508474577" width="78" height="78" as="geometry" />
        </mxCell>
        <mxCell id="CTFJwCtAbw5jruC2qFMy-82" value="" style="sketch=0;points=[[0,0,0],[0.25,0,0],[0.5,0,0],[0.75,0,0],[1,0,0],[0,1,0],[0.25,1,0],[0.5,1,0],[0.75,1,0],[1,1,0],[0,0.25,0],[0,0.5,0],[0,0.75,0],[1,0.25,0],[1,0.5,0],[1,0.75,0]];outlineConnect=0;fontColor=#232F3E;gradientColor=#F78E04;gradientDirection=north;fillColor=#D05C17;strokeColor=#ffffff;dashed=0;verticalLabelPosition=bottom;verticalAlign=top;align=center;html=1;fontSize=12;fontStyle=0;aspect=fixed;shape=mxgraph.aws4.resourceIcon;resIcon=mxgraph.aws4.ec2;" vertex="1" parent="CTFJwCtAbw5jruC2qFMy-78">
          <mxGeometry x="40" y="384.99830508474577" width="78" height="78" as="geometry" />
        </mxCell>
        <mxCell id="CTFJwCtAbw5jruC2qFMy-83" value="APP SERVER" style="text;html=1;align=center;verticalAlign=middle;resizable=0;points=[];autosize=1;strokeColor=none;fillColor=none;" vertex="1" parent="CTFJwCtAbw5jruC2qFMy-78">
          <mxGeometry x="31" y="178" width="100" height="30" as="geometry" />
        </mxCell>
        <mxCell id="CTFJwCtAbw5jruC2qFMy-84" value="Interoperability Server" style="text;html=1;align=center;verticalAlign=middle;resizable=0;points=[];autosize=1;strokeColor=none;fillColor=none;" vertex="1" parent="CTFJwCtAbw5jruC2qFMy-78">
          <mxGeometry x="20" y="323" width="140" height="30" as="geometry" />
        </mxCell>
        <mxCell id="CTFJwCtAbw5jruC2qFMy-85" value="BI Server" style="text;html=1;align=center;verticalAlign=middle;resizable=0;points=[];autosize=1;strokeColor=none;fillColor=none;" vertex="1" parent="CTFJwCtAbw5jruC2qFMy-78">
          <mxGeometry x="44" y="475" width="70" height="30" as="geometry" />
        </mxCell>
        <mxCell id="CTFJwCtAbw5jruC2qFMy-86" value="&lt;b style=&quot;font-size: 22px;&quot;&gt;&lt;span style=&quot;font-family: Calibri;&quot;&gt;Clinic&lt;/span&gt;&lt;span style=&quot;font-family: Calibri;&quot;&gt; + UCI&lt;/span&gt;&lt;/b&gt;" style="text;html=1;strokeColor=none;fillColor=none;align=center;verticalAlign=middle;whiteSpace=wrap;rounded=0;" vertex="1" parent="CTFJwCtAbw5jruC2qFMy-78">
          <mxGeometry x="4.5" y="50" width="171" height="30" as="geometry" />
        </mxCell>
        <mxCell id="CTFJwCtAbw5jruC2qFMy-87" value="" style="sketch=0;points=[[0,0,0],[0.25,0,0],[0.5,0,0],[0.75,0,0],[1,0,0],[0,1,0],[0.25,1,0],[0.5,1,0],[0.75,1,0],[1,1,0],[0,0.25,0],[0,0.5,0],[0,0.75,0],[1,0.25,0],[1,0.5,0],[1,0.75,0]];outlineConnect=0;fontColor=#232F3E;gradientColor=#F78E04;gradientDirection=north;fillColor=#D05C17;strokeColor=#ffffff;dashed=0;verticalLabelPosition=bottom;verticalAlign=top;align=center;html=1;fontSize=12;fontStyle=0;aspect=fixed;shape=mxgraph.aws4.resourceIcon;resIcon=mxgraph.aws4.ec2;" vertex="1" parent="CTFJwCtAbw5jruC2qFMy-78">
          <mxGeometry x="247" y="99.99830508474577" width="78" height="78" as="geometry" />
        </mxCell>
        <mxCell id="CTFJwCtAbw5jruC2qFMy-88" style="edgeStyle=orthogonalEdgeStyle;rounded=0;orthogonalLoop=1;jettySize=auto;html=1;exitX=0;exitY=0.5;exitDx=0;exitDy=0;exitPerimeter=0;" edge="1" parent="CTFJwCtAbw5jruC2qFMy-78" source="CTFJwCtAbw5jruC2qFMy-89">
          <mxGeometry relative="1" as="geometry">
            <mxPoint x="327" y="679.9999999999995" as="targetPoint" />
          </mxGeometry>
        </mxCell>
        <mxCell id="CTFJwCtAbw5jruC2qFMy-89" value="" style="sketch=0;points=[[0,0,0],[0.25,0,0],[0.5,0,0],[0.75,0,0],[1,0,0],[0,1,0],[0.25,1,0],[0.5,1,0],[0.75,1,0],[1,1,0],[0,0.25,0],[0,0.5,0],[0,0.75,0],[1,0.25,0],[1,0.5,0],[1,0.75,0]];outlineConnect=0;fontColor=#232F3E;gradientColor=#F78E04;gradientDirection=north;fillColor=#D05C17;strokeColor=#ffffff;dashed=0;verticalLabelPosition=bottom;verticalAlign=top;align=center;html=1;fontSize=12;fontStyle=0;aspect=fixed;shape=mxgraph.aws4.resourceIcon;resIcon=mxgraph.aws4.ec2;" vertex="1" parent="CTFJwCtAbw5jruC2qFMy-78">
          <mxGeometry x="245" y="244.99830508474577" width="78" height="78" as="geometry" />
        </mxCell>
        <mxCell id="CTFJwCtAbw5jruC2qFMy-90" value="APP SERVER" style="text;html=1;align=center;verticalAlign=middle;resizable=0;points=[];autosize=1;strokeColor=none;fillColor=none;" vertex="1" parent="CTFJwCtAbw5jruC2qFMy-78">
          <mxGeometry x="238" y="178" width="100" height="30" as="geometry" />
        </mxCell>
        <mxCell id="CTFJwCtAbw5jruC2qFMy-91" value="Interoperability Server" style="text;html=1;align=center;verticalAlign=middle;resizable=0;points=[];autosize=1;strokeColor=none;fillColor=none;" vertex="1" parent="CTFJwCtAbw5jruC2qFMy-78">
          <mxGeometry x="227" y="323" width="140" height="30" as="geometry" />
        </mxCell>
        <mxCell id="CTFJwCtAbw5jruC2qFMy-92" value="&lt;span style=&quot;font-size: 22px;&quot;&gt;&lt;b&gt;EMPI + CSH&lt;/b&gt;&lt;/span&gt;" style="text;html=1;strokeColor=none;fillColor=none;align=center;verticalAlign=middle;whiteSpace=wrap;rounded=0;" vertex="1" parent="CTFJwCtAbw5jruC2qFMy-78">
          <mxGeometry x="211.5" y="50" width="171" height="30" as="geometry" />
        </mxCell>
        <mxCell id="CTFJwCtAbw5jruC2qFMy-93" style="edgeStyle=orthogonalEdgeStyle;rounded=0;orthogonalLoop=1;jettySize=auto;html=1;exitX=1;exitY=0.5;exitDx=0;exitDy=0;exitPerimeter=0;" edge="1" parent="CTFJwCtAbw5jruC2qFMy-78">
          <mxGeometry relative="1" as="geometry">
            <mxPoint x="113" y="138.99830508474588" as="sourcePoint" />
            <mxPoint x="93.97560975609758" y="687" as="targetPoint" />
            <Array as="points">
              <mxPoint x="139" y="139" />
              <mxPoint x="139" y="540" />
              <mxPoint x="99" y="540" />
              <mxPoint x="99" y="687" />
            </Array>
          </mxGeometry>
        </mxCell>
        <mxCell id="CTFJwCtAbw5jruC2qFMy-94" value="Private subnet" style="points=[[0,0],[0.25,0],[0.5,0],[0.75,0],[1,0],[1,0.25],[1,0.5],[1,0.75],[1,1],[0.75,1],[0.5,1],[0.25,1],[0,1],[0,0.75],[0,0.5],[0,0.25]];outlineConnect=0;gradientColor=none;html=1;whiteSpace=wrap;fontSize=12;fontStyle=0;container=1;pointerEvents=0;collapsible=0;recursiveResize=0;shape=mxgraph.aws4.group;grIcon=mxgraph.aws4.group_security_group;grStroke=0;strokeColor=#147EBA;fillColor=#E6F2F8;verticalAlign=top;align=left;spacingLeft=30;fontColor=#147EBA;dashed=0;" vertex="1" parent="1">
          <mxGeometry x="6800" y="-80" width="430" height="334" as="geometry" />
        </mxCell>
        <mxCell id="CTFJwCtAbw5jruC2qFMy-95" value="&lt;p style=&quot;language:es-CL;margin-top:0pt;margin-bottom:0pt;margin-left:0in;&lt;br/&gt;text-align:left;direction:ltr;unicode-bidi:embed;vertical-align:bottom;&lt;br/&gt;mso-line-break-override:none;word-break:normal;punctuation-wrap:hanging&quot;&gt;Amazon&lt;br&gt;RDS for PostgreSQL&lt;/p&gt;&lt;p style=&quot;language:es-CL;margin-top:0pt;margin-bottom:0pt;margin-left:0in;&lt;br/&gt;text-align:left;direction:ltr;unicode-bidi:embed;vertical-align:bottom;&lt;br/&gt;mso-line-break-override:none;word-break:normal;punctuation-wrap:hanging&quot;&gt;Clinic + UCI&lt;/p&gt;" style="sketch=0;outlineConnect=0;fontColor=#232F3E;gradientColor=none;fillColor=#2E27AD;strokeColor=none;dashed=0;verticalLabelPosition=bottom;verticalAlign=top;align=center;html=1;fontSize=12;fontStyle=0;aspect=fixed;pointerEvents=1;shape=mxgraph.aws4.rds_postgresql_instance;" vertex="1" parent="CTFJwCtAbw5jruC2qFMy-94">
          <mxGeometry x="62" y="111" width="78" height="78" as="geometry" />
        </mxCell>
        <mxCell id="CTFJwCtAbw5jruC2qFMy-96" value="" style="rounded=1;arcSize=10;dashed=1;strokeColor=#ff0000;fillColor=none;gradientColor=none;dashPattern=8 4;strokeWidth=2;" vertex="1" parent="CTFJwCtAbw5jruC2qFMy-94">
          <mxGeometry x="30" y="87" width="150" height="160" as="geometry" />
        </mxCell>
        <mxCell id="CTFJwCtAbw5jruC2qFMy-97" value="&lt;p style=&quot;language:es-CL;margin-top:0pt;margin-bottom:0pt;margin-left:0in;&lt;br/&gt;text-align:left;direction:ltr;unicode-bidi:embed;vertical-align:bottom;&lt;br/&gt;mso-line-break-override:none;word-break:normal;punctuation-wrap:hanging&quot;&gt;Amazon&lt;br&gt;RDS for PostgreSQL&lt;/p&gt;&lt;p style=&quot;language:es-CL;margin-top:0pt;margin-bottom:0pt;margin-left:0in;&lt;br/&gt;text-align:left;direction:ltr;unicode-bidi:embed;vertical-align:bottom;&lt;br/&gt;mso-line-break-override:none;word-break:normal;punctuation-wrap:hanging&quot;&gt;EMPI + CSH&lt;/p&gt;" style="sketch=0;outlineConnect=0;fontColor=#232F3E;gradientColor=none;fillColor=#2E27AD;strokeColor=none;dashed=0;verticalLabelPosition=bottom;verticalAlign=top;align=center;html=1;fontSize=12;fontStyle=0;aspect=fixed;pointerEvents=1;shape=mxgraph.aws4.rds_postgresql_instance;" vertex="1" parent="CTFJwCtAbw5jruC2qFMy-94">
          <mxGeometry x="292" y="111" width="78" height="78" as="geometry" />
        </mxCell>
        <mxCell id="CTFJwCtAbw5jruC2qFMy-98" value="" style="rounded=1;arcSize=10;dashed=1;strokeColor=#ff0000;fillColor=none;gradientColor=none;dashPattern=8 4;strokeWidth=2;" vertex="1" parent="CTFJwCtAbw5jruC2qFMy-94">
          <mxGeometry x="260" y="87" width="150" height="160" as="geometry" />
        </mxCell>
        <mxCell id="CTFJwCtAbw5jruC2qFMy-99" style="edgeStyle=orthogonalEdgeStyle;rounded=0;orthogonalLoop=1;jettySize=auto;html=1;exitX=1;exitY=0.5;exitDx=0;exitDy=0;exitPerimeter=0;entryX=0.5;entryY=0;entryDx=0;entryDy=0;" edge="1" parent="1">
          <mxGeometry relative="1" as="geometry">
            <mxPoint x="6924.5" y="-396.0016949152541" as="sourcePoint" />
            <mxPoint x="6907" y="7" as="targetPoint" />
            <Array as="points">
              <mxPoint x="6944.5" y="-396" />
              <mxPoint x="6944.5" y="-140" />
              <mxPoint x="6907.5" y="-140" />
            </Array>
          </mxGeometry>
        </mxCell>
        <mxCell id="CTFJwCtAbw5jruC2qFMy-100" style="edgeStyle=orthogonalEdgeStyle;rounded=0;orthogonalLoop=1;jettySize=auto;html=1;entryX=0.5;entryY=0;entryDx=0;entryDy=0;" edge="1" parent="1">
          <mxGeometry relative="1" as="geometry">
            <mxPoint x="6926.5" y="-256" as="sourcePoint" />
            <mxPoint x="6907" y="7" as="targetPoint" />
            <Array as="points">
              <mxPoint x="6945.5" y="-256" />
              <mxPoint x="6945.5" y="-140" />
              <mxPoint x="6907.5" y="-140" />
            </Array>
          </mxGeometry>
        </mxCell>
        <mxCell id="CTFJwCtAbw5jruC2qFMy-101" style="edgeStyle=orthogonalEdgeStyle;rounded=0;orthogonalLoop=1;jettySize=auto;html=1;exitX=0;exitY=0.5;exitDx=0;exitDy=0;exitPerimeter=0;" edge="1" parent="1" source="CTFJwCtAbw5jruC2qFMy-87" target="CTFJwCtAbw5jruC2qFMy-98">
          <mxGeometry relative="1" as="geometry">
            <Array as="points">
              <mxPoint x="7033.5" y="-541" />
              <mxPoint x="7033.5" y="-180" />
              <mxPoint x="7134.5" y="-180" />
            </Array>
          </mxGeometry>
        </mxCell>
        <mxCell id="CTFJwCtAbw5jruC2qFMy-102" value="VPC" style="points=[[0,0],[0.25,0],[0.5,0],[0.75,0],[1,0],[1,0.25],[1,0.5],[1,0.75],[1,1],[0.75,1],[0.5,1],[0.25,1],[0,1],[0,0.75],[0,0.5],[0,0.25]];outlineConnect=0;gradientColor=none;html=1;whiteSpace=wrap;fontSize=12;fontStyle=0;container=1;pointerEvents=0;collapsible=0;recursiveResize=0;shape=mxgraph.aws4.group;grIcon=mxgraph.aws4.group_vpc;strokeColor=#248814;fillColor=none;verticalAlign=top;align=left;spacingLeft=30;fontColor=#AAB7B8;dashed=0;" vertex="1" parent="1">
          <mxGeometry x="6160" y="-710" width="500" height="1020" as="geometry" />
        </mxCell>
        <mxCell id="CTFJwCtAbw5jruC2qFMy-103" value="VPC" style="points=[[0,0],[0.25,0],[0.5,0],[0.75,0],[1,0],[1,0.25],[1,0.5],[1,0.75],[1,1],[0.75,1],[0.5,1],[0.25,1],[0,1],[0,0.75],[0,0.5],[0,0.25]];outlineConnect=0;gradientColor=none;html=1;whiteSpace=wrap;fontSize=12;fontStyle=0;container=1;pointerEvents=0;collapsible=0;recursiveResize=0;shape=mxgraph.aws4.group;grIcon=mxgraph.aws4.group_vpc;strokeColor=#248814;fillColor=none;verticalAlign=top;align=left;spacingLeft=30;fontColor=#AAB7B8;dashed=0;" vertex="1" parent="1">
          <mxGeometry x="6750" y="-710" width="510" height="1010" as="geometry" />
        </mxCell>
        <mxCell id="CTFJwCtAbw5jruC2qFMy-105" value="Region" style="points=[[0,0],[0.25,0],[0.5,0],[0.75,0],[1,0],[1,0.25],[1,0.5],[1,0.75],[1,1],[0.75,1],[0.5,1],[0.25,1],[0,1],[0,0.75],[0,0.5],[0,0.25]];outlineConnect=0;gradientColor=none;html=1;whiteSpace=wrap;fontSize=12;fontStyle=0;container=1;pointerEvents=0;collapsible=0;recursiveResize=0;shape=mxgraph.aws4.group;grIcon=mxgraph.aws4.group_region;strokeColor=#147EBA;fillColor=none;verticalAlign=top;align=left;spacingLeft=30;fontColor=#147EBA;dashed=1;" vertex="1" parent="1">
          <mxGeometry x="6080" y="-1410" width="2170" height="2250" as="geometry" />
        </mxCell>
        <mxCell id="CTFJwCtAbw5jruC2qFMy-106" value="AWS Cloud" style="points=[[0,0],[0.25,0],[0.5,0],[0.75,0],[1,0],[1,0.25],[1,0.5],[1,0.75],[1,1],[0.75,1],[0.5,1],[0.25,1],[0,1],[0,0.75],[0,0.5],[0,0.25]];outlineConnect=0;gradientColor=none;html=1;whiteSpace=wrap;fontSize=12;fontStyle=0;container=1;pointerEvents=0;collapsible=0;recursiveResize=0;shape=mxgraph.aws4.group;grIcon=mxgraph.aws4.group_aws_cloud_alt;strokeColor=#232F3E;fillColor=none;verticalAlign=top;align=left;spacingLeft=30;fontColor=#232F3E;dashed=0;" vertex="1" parent="1">
          <mxGeometry x="6020" y="-1440" width="2280" height="2310" as="geometry" />
        </mxCell>
        <mxCell id="CTFJwCtAbw5jruC2qFMy-55" value="" style="sketch=0;outlineConnect=0;fontColor=#232F3E;gradientColor=none;fillColor=#4D27AA;strokeColor=none;dashed=0;verticalLabelPosition=bottom;verticalAlign=top;align=center;html=1;fontSize=12;fontStyle=0;aspect=fixed;pointerEvents=1;shape=mxgraph.aws4.vpn_gateway;" vertex="1" parent="CTFJwCtAbw5jruC2qFMy-106">
          <mxGeometry x="1250" y="130" width="78" height="78" as="geometry" />
        </mxCell>
        <mxCell id="HLCbXC__rA61MA5NDTQK-89" value="" style="sketch=0;points=[[0,0,0],[0.25,0,0],[0.5,0,0],[0.75,0,0],[1,0,0],[0,1,0],[0.25,1,0],[0.5,1,0],[0.75,1,0],[1,1,0],[0,0.25,0],[0,0.5,0],[0,0.75,0],[1,0.25,0],[1,0.5,0],[1,0.75,0]];outlineConnect=0;fontColor=#232F3E;gradientColor=#945DF2;gradientDirection=north;fillColor=#5A30B5;strokeColor=#ffffff;dashed=0;verticalLabelPosition=bottom;verticalAlign=top;align=center;html=1;fontSize=12;fontStyle=0;aspect=fixed;shape=mxgraph.aws4.resourceIcon;resIcon=mxgraph.aws4.route_53;shadow=1;labelBackgroundColor=#;" parent="CTFJwCtAbw5jruC2qFMy-106" vertex="1">
          <mxGeometry x="538.5" y="160" width="68" height="68" as="geometry" />
        </mxCell>
        <mxCell id="HLCbXC__rA61MA5NDTQK-85" value="" style="sketch=0;points=[[0,0,0],[0.25,0,0],[0.5,0,0],[0.75,0,0],[1,0,0],[0,1,0],[0.25,1,0],[0.5,1,0],[0.75,1,0],[1,1,0],[0,0.25,0],[0,0.5,0],[0,0.75,0],[1,0.25,0],[1,0.5,0],[1,0.75,0]];outlineConnect=0;fontColor=#232F3E;gradientColor=#F54749;gradientDirection=north;fillColor=#C7131F;strokeColor=#ffffff;dashed=0;verticalLabelPosition=bottom;verticalAlign=top;align=center;html=1;fontSize=12;fontStyle=0;aspect=fixed;shape=mxgraph.aws4.resourceIcon;resIcon=mxgraph.aws4.waf;shadow=1;labelBackgroundColor=#;fontFamily=Helvetica;" parent="CTFJwCtAbw5jruC2qFMy-106" vertex="1">
          <mxGeometry x="720" y="155" width="78" height="78" as="geometry" />
        </mxCell>
        <mxCell id="HLCbXC__rA61MA5NDTQK-194" style="edgeStyle=orthogonalEdgeStyle;rounded=0;orthogonalLoop=1;jettySize=auto;html=1;entryX=0;entryY=0.5;entryDx=0;entryDy=0;entryPerimeter=0;" parent="CTFJwCtAbw5jruC2qFMy-106" source="HLCbXC__rA61MA5NDTQK-89" target="HLCbXC__rA61MA5NDTQK-85" edge="1">
          <mxGeometry relative="1" as="geometry" />
        </mxCell>
        <mxCell id="HLCbXC__rA61MA5NDTQK-81" value="" style="sketch=0;outlineConnect=0;fontColor=#232F3E;gradientColor=none;fillColor=#4D27AA;strokeColor=none;dashed=0;verticalLabelPosition=bottom;verticalAlign=top;align=center;html=1;fontSize=12;fontStyle=0;aspect=fixed;pointerEvents=1;shape=mxgraph.aws4.application_load_balancer;" parent="CTFJwCtAbw5jruC2qFMy-106" vertex="1">
          <mxGeometry x="720" y="324" width="78" height="78" as="geometry" />
        </mxCell>
        <mxCell id="CTFJwCtAbw5jruC2qFMy-46" style="edgeStyle=orthogonalEdgeStyle;rounded=0;orthogonalLoop=1;jettySize=auto;html=1;" edge="1" parent="CTFJwCtAbw5jruC2qFMy-106" source="HLCbXC__rA61MA5NDTQK-85" target="HLCbXC__rA61MA5NDTQK-81">
          <mxGeometry relative="1" as="geometry" />
        </mxCell>
        <mxCell id="CTFJwCtAbw5jruC2qFMy-56" value="" style="sketch=0;outlineConnect=0;fontColor=#232F3E;gradientColor=none;fillColor=#4D27AA;strokeColor=none;dashed=0;verticalLabelPosition=bottom;verticalAlign=top;align=center;html=1;fontSize=12;fontStyle=0;aspect=fixed;pointerEvents=1;shape=mxgraph.aws4.internet_gateway;" vertex="1" parent="CTFJwCtAbw5jruC2qFMy-106">
          <mxGeometry x="1345" y="130" width="78" height="78" as="geometry" />
        </mxCell>
        <mxCell id="CTFJwCtAbw5jruC2qFMy-54" value="" style="sketch=0;outlineConnect=0;fontColor=#232F3E;gradientColor=none;fillColor=#4D27AA;strokeColor=none;dashed=0;verticalLabelPosition=bottom;verticalAlign=top;align=center;html=1;fontSize=12;fontStyle=0;aspect=fixed;pointerEvents=1;shape=mxgraph.aws4.nat_gateway;" vertex="1" parent="CTFJwCtAbw5jruC2qFMy-106">
          <mxGeometry x="1345" y="228" width="78" height="78" as="geometry" />
        </mxCell>
        <mxCell id="CTFJwCtAbw5jruC2qFMy-107" value="" style="outlineConnect=0;dashed=0;verticalLabelPosition=bottom;verticalAlign=top;align=center;html=1;shape=mxgraph.aws3.config;fillColor=#759C3E;gradientColor=none;" vertex="1" parent="CTFJwCtAbw5jruC2qFMy-106">
          <mxGeometry x="2110" y="60" width="76.5" height="93" as="geometry" />
        </mxCell>
        <mxCell id="CTFJwCtAbw5jruC2qFMy-108" value="" style="sketch=0;points=[[0,0,0],[0.25,0,0],[0.5,0,0],[0.75,0,0],[1,0,0],[0,1,0],[0.25,1,0],[0.5,1,0],[0.75,1,0],[1,1,0],[0,0.25,0],[0,0.5,0],[0,0.75,0],[1,0.25,0],[1,0.5,0],[1,0.75,0]];outlineConnect=0;fontColor=#232F3E;gradientColor=#F54749;gradientDirection=north;fillColor=#C7131F;strokeColor=#ffffff;dashed=0;verticalLabelPosition=bottom;verticalAlign=top;align=center;html=1;fontSize=12;fontStyle=0;aspect=fixed;shape=mxgraph.aws4.resourceIcon;resIcon=mxgraph.aws4.guardduty;" vertex="1" parent="CTFJwCtAbw5jruC2qFMy-106">
          <mxGeometry x="2010" y="70" width="78" height="78" as="geometry" />
        </mxCell>
        <mxCell id="CTFJwCtAbw5jruC2qFMy-109" value="" style="sketch=0;points=[[0,0,0],[0.25,0,0],[0.5,0,0],[0.75,0,0],[1,0,0],[0,1,0],[0.25,1,0],[0.5,1,0],[0.75,1,0],[1,1,0],[0,0.25,0],[0,0.5,0],[0,0.75,0],[1,0.25,0],[1,0.5,0],[1,0.75,0]];outlineConnect=0;fontColor=#232F3E;gradientColor=#F54749;gradientDirection=north;fillColor=#C7131F;strokeColor=#ffffff;dashed=0;verticalLabelPosition=bottom;verticalAlign=top;align=center;html=1;fontSize=12;fontStyle=0;aspect=fixed;shape=mxgraph.aws4.resourceIcon;resIcon=mxgraph.aws4.directory_service;" vertex="1" parent="CTFJwCtAbw5jruC2qFMy-106">
          <mxGeometry x="1902" y="71" width="78" height="78" as="geometry" />
        </mxCell>
        <mxCell id="CTFJwCtAbw5jruC2qFMy-110" value="" style="outlineConnect=0;dashed=0;verticalLabelPosition=bottom;verticalAlign=top;align=center;html=1;shape=mxgraph.aws3.inspector;fillColor=#759C3E;gradientColor=none;" vertex="1" parent="CTFJwCtAbw5jruC2qFMy-106">
          <mxGeometry x="1790" y="74" width="67.5" height="81" as="geometry" />
        </mxCell>
        <mxCell id="CTFJwCtAbw5jruC2qFMy-111" value="" style="sketch=0;points=[[0,0,0],[0.25,0,0],[0.5,0,0],[0.75,0,0],[1,0,0],[0,1,0],[0.25,1,0],[0.5,1,0],[0.75,1,0],[1,1,0],[0,0.25,0],[0,0.5,0],[0,0.75,0],[1,0.25,0],[1,0.5,0],[1,0.75,0]];outlineConnect=0;fontColor=#232F3E;gradientColor=#60A337;gradientDirection=north;fillColor=#277116;strokeColor=#ffffff;dashed=0;verticalLabelPosition=bottom;verticalAlign=top;align=center;html=1;fontSize=12;fontStyle=0;aspect=fixed;shape=mxgraph.aws4.resourceIcon;resIcon=mxgraph.aws4.backup;" vertex="1" parent="CTFJwCtAbw5jruC2qFMy-106">
          <mxGeometry x="2110" y="180" width="78" height="78" as="geometry" />
        </mxCell>
        <mxCell id="CTFJwCtAbw5jruC2qFMy-112" value="" style="outlineConnect=0;dashed=0;verticalLabelPosition=bottom;verticalAlign=top;align=center;html=1;shape=mxgraph.aws3.cloudwatch;fillColor=#759C3E;gradientColor=none;" vertex="1" parent="CTFJwCtAbw5jruC2qFMy-106">
          <mxGeometry x="2000" y="173" width="82.5" height="93" as="geometry" />
        </mxCell>
        <mxCell id="CTFJwCtAbw5jruC2qFMy-113" value="" style="sketch=0;points=[[0,0,0],[0.25,0,0],[0.5,0,0],[0.75,0,0],[1,0,0],[0,1,0],[0.25,1,0],[0.5,1,0],[0.75,1,0],[1,1,0],[0,0.25,0],[0,0.5,0],[0,0.75,0],[1,0.25,0],[1,0.5,0],[1,0.75,0]];points=[[0,0,0],[0.25,0,0],[0.5,0,0],[0.75,0,0],[1,0,0],[0,1,0],[0.25,1,0],[0.5,1,0],[0.75,1,0],[1,1,0],[0,0.25,0],[0,0.5,0],[0,0.75,0],[1,0.25,0],[1,0.5,0],[1,0.75,0]];outlineConnect=0;fontColor=#232F3E;gradientColor=#F34482;gradientDirection=north;fillColor=#BC1356;strokeColor=#ffffff;dashed=0;verticalLabelPosition=bottom;verticalAlign=top;align=center;html=1;fontSize=12;fontStyle=0;aspect=fixed;shape=mxgraph.aws4.resourceIcon;resIcon=mxgraph.aws4.systems_manager;" vertex="1" parent="CTFJwCtAbw5jruC2qFMy-106">
          <mxGeometry x="1893" y="181" width="78" height="78" as="geometry" />
        </mxCell>
        <mxCell id="CTFJwCtAbw5jruC2qFMy-114" value="" style="sketch=0;points=[[0,0,0],[0.25,0,0],[0.5,0,0],[0.75,0,0],[1,0,0],[0,1,0],[0.25,1,0],[0.5,1,0],[0.75,1,0],[1,1,0],[0,0.25,0],[0,0.5,0],[0,0.75,0],[1,0.25,0],[1,0.5,0],[1,0.75,0]];outlineConnect=0;fontColor=#232F3E;gradientColor=#F54749;gradientDirection=north;fillColor=#C7131F;strokeColor=#ffffff;dashed=0;verticalLabelPosition=bottom;verticalAlign=top;align=center;html=1;fontSize=12;fontStyle=0;aspect=fixed;shape=mxgraph.aws4.resourceIcon;resIcon=mxgraph.aws4.secrets_manager;" vertex="1" parent="CTFJwCtAbw5jruC2qFMy-106">
          <mxGeometry x="1785" y="189" width="78" height="78" as="geometry" />
        </mxCell>
      </root>
    </mxGraphModel>
  </diagram>
  <diagram id="tiedDCeU-IoKVBoDPQ0T" name="DEV">
    <mxGraphModel dx="1434" dy="792" grid="1" gridSize="10" guides="1" tooltips="1" connect="1" arrows="1" fold="1" page="1" pageScale="1" pageWidth="827" pageHeight="1169" math="0" shadow="0">
      <root>
        <mxCell id="0" />
        <mxCell id="1" parent="0" />
      </root>
    </mxGraphModel>
  </diagram>
  <diagram id="2VHGlD26iuXLKOAJg6JK" name="PRE">
    <mxGraphModel dx="1434" dy="792" grid="1" gridSize="10" guides="1" tooltips="1" connect="1" arrows="1" fold="1" page="1" pageScale="1" pageWidth="827" pageHeight="1169" math="0" shadow="0">
      <root>
        <mxCell id="0" />
        <mxCell id="1" parent="0" />
      </root>
    </mxGraphModel>
  </diagram>
  <diagram id="7knNTlHwYdcXFNYBiukL" name="PRO">
    <mxGraphModel dx="1434" dy="792" grid="1" gridSize="10" guides="1" tooltips="1" connect="1" arrows="1" fold="1" page="1" pageScale="1" pageWidth="827" pageHeight="1169" math="0" shadow="0">
      <root>
        <mxCell id="0" />
        <mxCell id="1" parent="0" />
      </root>
    </mxGraphModel>
  </diagram>
</mxfile>
